#N canvas 30 30 700 460 12;
#X text 20 10 THE CAIRN layer (keysinst==1 \, Fader 4) = wind/air (synth placeholder: filtered noise).;
#X obj 30 60 r keysinst;
#X obj 30 90 == 1;
#X obj 30 120 pack 0 30;
#X obj 30 150 line~;
#X obj 200 60 r~ amp;
#X obj 360 60 noise~;
#X obj 360 100 bp~ 1200 2;
#X obj 360 140 *~ 0.15;
#X obj 600 100 r fader4;
#X obj 600 130 pack 0 50;
#X obj 600 160 line~;
#X obj 360 190 *~;
#X obj 360 230 *~;
#X obj 360 270 *~;
#X obj 360 310 throw~ sfx;
#X connect 1 0 2 0;
#X connect 2 0 3 0;
#X connect 3 0 4 0;
#X connect 6 0 7 0;
#X connect 7 0 8 0;
#X connect 8 0 12 0;
#X connect 9 0 10 0;
#X connect 10 0 11 0;
#X connect 11 0 12 1;
#X connect 12 0 13 0;
#X connect 4 0 13 1;
#X connect 13 0 14 0;
#X connect 5 0 14 1;
#X connect 14 0 15 0;
