#N canvas 30 30 720 500 12;
#X text 20 10 THE CAIRN layer (keysinst==1 \, Fader 2) = horn/throat formant drone (synth placeholder: saw G2 -> resonant bandpass).;
#X obj 30 60 r keysinst;
#X obj 30 90 == 1;
#X obj 30 120 pack 0 30;
#X obj 30 150 line~;
#X obj 200 60 r~ amp;
#X obj 360 60 phasor~ 98;
#X obj 360 90 -~ 0.5;
#X obj 360 130 bp~ 450 5;
#X obj 360 170 *~ 0.4;
#X obj 600 120 r fader2;
#X obj 600 150 pack 0 50;
#X obj 600 180 line~;
#X obj 360 220 *~;
#X obj 360 260 *~;
#X obj 360 300 *~;
#X obj 360 340 throw~ sfx;
#X obj 40 520 r basefreq;
#X obj 40 550 * 1;
#X connect 1 0 2 0;
#X connect 2 0 3 0;
#X connect 3 0 4 0;
#X connect 6 0 7 0;
#X connect 7 0 8 0;
#X connect 8 0 9 0;
#X connect 9 0 13 0;
#X connect 10 0 11 0;
#X connect 11 0 12 0;
#X connect 12 0 13 1;
#X connect 13 0 14 0;
#X connect 4 0 14 1;
#X connect 14 0 15 0;
#X connect 5 0 15 1;
#X connect 15 0 16 0;
#X connect 17 0 18 0;
#X connect 18 0 6 0;