#N canvas 30 30 760 460 12;
#X text 20 10 COMBO 1 = SYNTH DRONE. Faders 1-4 -> synth voice levels (Strings/Rhodes/Sine/Air) \, gated so they only respond when this combo (keysinst==0) is selected.;
#X obj 30 70 r keysinst;
#X obj 30 100 == 0;
#X obj 30 130 t b f;
#X obj 30 190 r fader1;
#X obj 30 220 f;
#X obj 30 250 *;
#X obj 30 280 s lvlA;
#X obj 150 190 r fader2;
#X obj 150 220 f;
#X obj 150 250 *;
#X obj 150 280 s lvlB;
#X obj 270 190 r fader3;
#X obj 270 220 f;
#X obj 270 250 *;
#X obj 270 280 s lvlC;
#X obj 390 190 r fader4;
#X obj 390 220 f;
#X obj 390 250 *;
#X obj 390 280 s lvlN;
#X obj 560 70 loadbang;
#X msg 560 100 0;
#X obj 560 130 s keysinst;
#X connect 1 0 2 0;
#X connect 2 0 3 0;
#X connect 4 0 5 0;
#X connect 3 0 5 0;
#X connect 5 0 6 0;
#X connect 3 1 6 1;
#X connect 6 0 7 0;
#X connect 8 0 9 0;
#X connect 3 0 9 0;
#X connect 9 0 10 0;
#X connect 3 1 10 1;
#X connect 10 0 11 0;
#X connect 12 0 13 0;
#X connect 3 0 13 0;
#X connect 13 0 14 0;
#X connect 3 1 14 1;
#X connect 14 0 15 0;
#X connect 16 0 17 0;
#X connect 3 0 17 0;
#X connect 17 0 18 0;
#X connect 3 1 18 1;
#X connect 18 0 19 0;
#X connect 20 0 21 0;
#X connect 21 0 22 0;
