#N canvas 30 30 800 560 12;
#X text 20 10 COMBO 2 = NORSE. Fader 1 = Box Violin long bowed swell (sustained drone). Gated to combo (keysinst==1) + pedal swell.;
#X obj 30 60 r keysinst;
#X obj 30 90 == 1;
#X obj 30 120 pack 0 30;
#X obj 30 150 line~;
#X obj 200 60 r~ amp;
#X obj 520 40 table tbv;
#X obj 360 60 loadbang;
#X msg 360 90 read -resize /home/ian/samples/boxviolin.wav tbv;
#X obj 360 130 soundfiler;
#X obj 360 170 t f f;
#X obj 360 210 expr 44100.0/$f1;
#X obj 360 250 phasor~;
#X obj 360 290 *~;
#X obj 360 330 tabread4~ tbv;
#X obj 600 250 r fader1;
#X obj 600 280 pack 0 50;
#X obj 600 310 line~;
#X obj 360 370 *~;
#X obj 360 410 *~;
#X obj 360 450 *~;
#X obj 360 490 throw~ sfx;
#X connect 1 0 2 0;
#X connect 2 0 3 0;
#X connect 3 0 4 0;
#X connect 7 0 8 0;
#X connect 8 0 9 0;
#X connect 9 0 10 0;
#X connect 10 0 11 0;
#X connect 10 1 13 1;
#X connect 11 0 12 0;
#X connect 12 0 13 0;
#X connect 13 0 14 0;
#X connect 14 0 18 0;
#X connect 15 0 16 0;
#X connect 16 0 17 0;
#X connect 17 0 18 1;
#X connect 18 0 19 0;
#X connect 4 0 19 1;
#X connect 19 0 20 0;
#X connect 5 0 20 1;
#X connect 20 0 21 0;
