#N canvas 30 30 720 500 12;
#X text 20 10 EIRE layer (keysinst==2 \, Fader 3) = bright harp/wire shimmer (synth placeholder: detuned saws E4+fifth -> resonant bandpass).;
#X obj 30 60 r keysinst;
#X obj 30 90 == 2;
#X obj 30 120 pack 0 30;
#X obj 30 150 line~;
#X obj 200 60 r~ amp;
#X obj 360 60 phasor~ 330;
#X obj 360 90 -~ 0.5;
#X obj 480 60 phasor~ 495;
#X obj 480 90 -~ 0.5;
#X obj 360 130 +~;
#X obj 360 170 bp~ 1800 3;
#X obj 360 210 *~ 0.18;
#X obj 600 210 r fader3;
#X obj 600 240 pack 0 50;
#X obj 600 270 line~;
#X obj 360 260 *~;
#X obj 360 300 *~;
#X obj 360 340 *~;
#X obj 360 380 throw~ sfx;
#X connect 1 0 2 0;
#X connect 2 0 3 0;
#X connect 3 0 4 0;
#X connect 6 0 7 0;
#X connect 8 0 9 0;
#X connect 7 0 10 0;
#X connect 9 0 10 1;
#X connect 10 0 11 0;
#X connect 11 0 12 0;
#X connect 12 0 16 0;
#X connect 13 0 14 0;
#X connect 14 0 15 0;
#X connect 15 0 16 1;
#X connect 16 0 17 0;
#X connect 4 0 17 1;
#X connect 17 0 18 0;
#X connect 5 0 18 1;
#X connect 18 0 19 0;
