#N canvas 30 30 760 520 12;
#X text 20 10 EIRE layer (keysinst==2 \, Fader 2) = Ocean Flute SAMPLE \, simple loop (airy mid texture). Reads /home/ian/samples/oflute.wav into table tof.;
#X obj 30 60 r keysinst;
#X obj 30 90 == 2;
#X obj 30 120 pack 0 30;
#X obj 30 150 line~;
#X obj 200 60 r~ amp;
#X obj 500 40 table tof;
#X obj 360 50 loadbang;
#X msg 360 80 read -resize /home/ian/samples/oflute.wav tof;
#X obj 360 110 soundfiler;
#X obj 360 140 t f f;
#X obj 360 170 expr 44100.0/$f1;
#X obj 360 200 phasor~;
#X obj 360 230 *~;
#X obj 360 260 tabread4~ tof;
#X obj 600 200 r fader2;
#X obj 600 230 pack 0 50;
#X obj 600 260 line~;
#X obj 360 300 *~;
#X obj 360 340 *~;
#X obj 360 380 *~;
#X obj 360 420 throw~ sfx;
#X connect 1 0 2 0;
#X connect 2 0 3 0;
#X connect 3 0 4 0;
#X connect 7 0 8 0;
#X connect 8 0 9 0;
#X connect 9 0 10 0;
#X connect 10 0 11 0;
#X connect 10 1 13 1;
#X connect 11 0 12 0;
#X connect 12 0 13 0;
#X connect 13 0 14 0;
#X connect 14 0 18 0;
#X connect 15 0 16 0;
#X connect 16 0 17 0;
#X connect 17 0 18 1;
#X connect 18 0 19 0;
#X connect 4 0 19 1;
#X connect 19 0 20 0;
#X connect 5 0 20 1;
#X connect 20 0 21 0;
