#N canvas 40 40 980 660 12;
#X obj 30 30 notein 10;
#X obj 30 70 stripnote;
#X obj 30 110 sel 36 37 38 39 40 41 42 43;
#X obj 40 170 f;
#X obj 80 170 + 1;
#X obj 80 200 mod 2;
#X obj 40 240 sel 1 0;
#X msg 40 280 open folk-samples/pad1.wav \, 1;
#X msg 95 320 0;
#X obj 40 390 readsf~ 2;
#X obj 100 240 f;
#X obj 100 280 sel 1;
#X obj 150 170 f;
#X obj 190 170 + 1;
#X obj 190 200 mod 2;
#X obj 150 240 sel 1 0;
#X msg 150 280 open folk-samples/pad2.wav \, 1;
#X msg 205 320 0;
#X obj 150 390 readsf~ 2;
#X obj 210 240 f;
#X obj 210 280 sel 1;
#X obj 260 170 f;
#X obj 300 170 + 1;
#X obj 300 200 mod 2;
#X obj 260 240 sel 1 0;
#X msg 260 280 open folk-samples/pad3.wav \, 1;
#X msg 315 320 0;
#X obj 260 390 readsf~ 2;
#X obj 320 240 f;
#X obj 320 280 sel 1;
#X obj 370 170 f;
#X obj 410 170 + 1;
#X obj 410 200 mod 2;
#X obj 370 240 sel 1 0;
#X msg 370 280 open folk-samples/pad4.wav \, 1;
#X msg 425 320 0;
#X obj 370 390 readsf~ 2;
#X obj 430 240 f;
#X obj 430 280 sel 1;
#X obj 480 170 f;
#X obj 520 170 + 1;
#X obj 520 200 mod 2;
#X obj 480 240 sel 1 0;
#X msg 480 280 open folk-samples/pad5.wav \, 1;
#X msg 535 320 0;
#X obj 480 390 readsf~ 2;
#X obj 540 240 f;
#X obj 540 280 sel 1;
#X obj 590 170 f;
#X obj 630 170 + 1;
#X obj 630 200 mod 2;
#X obj 590 240 sel 1 0;
#X msg 590 280 open folk-samples/pad6.wav \, 1;
#X msg 645 320 0;
#X obj 590 390 readsf~ 2;
#X obj 650 240 f;
#X obj 650 280 sel 1;
#X obj 700 170 f;
#X obj 740 170 + 1;
#X obj 740 200 mod 2;
#X obj 700 240 sel 1 0;
#X msg 700 280 open folk-samples/pad7.wav \, 1;
#X msg 755 320 0;
#X obj 700 390 readsf~ 2;
#X obj 760 240 f;
#X obj 760 280 sel 1;
#X obj 810 170 f;
#X obj 850 170 + 1;
#X obj 850 200 mod 2;
#X obj 810 240 sel 1 0;
#X msg 810 280 open folk-samples/pad8.wav \, 1;
#X msg 865 320 0;
#X obj 810 390 readsf~ 2;
#X obj 870 240 f;
#X obj 870 280 sel 1;
#X obj 30 500 throw~ sfx;
#X obj 700 30 loadbang;
#X msg 700 60 \; pd dsp 1;
#X connect 0 0 1 0;
#X connect 0 1 1 1;
#X connect 1 0 2 0;
#X connect 2 0 3 0;
#X connect 3 0 4 0;
#X connect 4 0 5 0;
#X connect 5 0 3 1;
#X connect 5 0 10 1;
#X connect 5 0 6 0;
#X connect 6 0 7 0;
#X connect 6 1 8 0;
#X connect 7 0 9 0;
#X connect 8 0 9 0;
#X connect 9 2 10 0;
#X connect 10 0 11 0;
#X connect 11 0 7 0;
#X connect 9 0 75 0;
#X connect 9 1 75 0;
#X connect 2 1 12 0;
#X connect 12 0 13 0;
#X connect 13 0 14 0;
#X connect 14 0 12 1;
#X connect 14 0 19 1;
#X connect 14 0 15 0;
#X connect 15 0 16 0;
#X connect 15 1 17 0;
#X connect 16 0 18 0;
#X connect 17 0 18 0;
#X connect 18 2 19 0;
#X connect 19 0 20 0;
#X connect 20 0 16 0;
#X connect 18 0 75 0;
#X connect 18 1 75 0;
#X connect 2 2 21 0;
#X connect 21 0 22 0;
#X connect 22 0 23 0;
#X connect 23 0 21 1;
#X connect 23 0 28 1;
#X connect 23 0 24 0;
#X connect 24 0 25 0;
#X connect 24 1 26 0;
#X connect 25 0 27 0;
#X connect 26 0 27 0;
#X connect 27 2 28 0;
#X connect 28 0 29 0;
#X connect 29 0 25 0;
#X connect 27 0 75 0;
#X connect 27 1 75 0;
#X connect 2 3 30 0;
#X connect 30 0 31 0;
#X connect 31 0 32 0;
#X connect 32 0 30 1;
#X connect 32 0 37 1;
#X connect 32 0 33 0;
#X connect 33 0 34 0;
#X connect 33 1 35 0;
#X connect 34 0 36 0;
#X connect 35 0 36 0;
#X connect 36 2 37 0;
#X connect 37 0 38 0;
#X connect 38 0 34 0;
#X connect 36 0 75 0;
#X connect 36 1 75 0;
#X connect 2 4 39 0;
#X connect 39 0 40 0;
#X connect 40 0 41 0;
#X connect 41 0 39 1;
#X connect 41 0 46 1;
#X connect 41 0 42 0;
#X connect 42 0 43 0;
#X connect 42 1 44 0;
#X connect 43 0 45 0;
#X connect 44 0 45 0;
#X connect 45 2 46 0;
#X connect 46 0 47 0;
#X connect 47 0 43 0;
#X connect 45 0 75 0;
#X connect 45 1 75 0;
#X connect 2 5 48 0;
#X connect 48 0 49 0;
#X connect 49 0 50 0;
#X connect 50 0 48 1;
#X connect 50 0 55 1;
#X connect 50 0 51 0;
#X connect 51 0 52 0;
#X connect 51 1 53 0;
#X connect 52 0 54 0;
#X connect 53 0 54 0;
#X connect 54 2 55 0;
#X connect 55 0 56 0;
#X connect 56 0 52 0;
#X connect 54 0 75 0;
#X connect 54 1 75 0;
#X connect 2 6 57 0;
#X connect 57 0 58 0;
#X connect 58 0 59 0;
#X connect 59 0 57 1;
#X connect 59 0 64 1;
#X connect 59 0 60 0;
#X connect 60 0 61 0;
#X connect 60 1 62 0;
#X connect 61 0 63 0;
#X connect 62 0 63 0;
#X connect 63 2 64 0;
#X connect 64 0 65 0;
#X connect 65 0 61 0;
#X connect 63 0 75 0;
#X connect 63 1 75 0;
#X connect 2 7 66 0;
#X connect 66 0 67 0;
#X connect 67 0 68 0;
#X connect 68 0 66 1;
#X connect 68 0 73 1;
#X connect 68 0 69 0;
#X connect 69 0 70 0;
#X connect 69 1 71 0;
#X connect 70 0 72 0;
#X connect 71 0 72 0;
#X connect 72 2 73 0;
#X connect 73 0 74 0;
#X connect 74 0 70 0;
#X connect 72 0 75 0;
#X connect 72 1 75 0;
