#N canvas 20 20 1200 1120 12;
#X obj 30 30 notein 1;
#X obj 30 60 stripnote;
#X obj 30 90 mtof;
#X obj 30 120 s basefreq;
#X obj 250 30 ctlin 64;
#X obj 250 60 sel 127;
#X obj 250 90 f;
#X obj 320 90 + 1;
#X obj 320 120 mod 2;
#X obj 250 150 * 0.8;
#X obj 250 180 pack 0 4000;
#X obj 250 210 line~;
#X obj 250 240 s~ amp;
#X obj 470 30 ctlin 70;
#X obj 470 60 / 127;
#X obj 470 90 s vol;
#X obj 580 30 ctlin 71;
#X obj 580 60 * 40;
#X obj 580 90 + 80;
#X obj 580 120 s cutoff;
#X obj 700 30 ctlin 73;
#X obj 700 60 / 127;
#X obj 700 90 s wet;
#X obj 820 30 ctlin 72;
#X obj 820 60 / 26;
#X obj 820 90 i;
#X obj 820 120 sel 0 1 2 3 4;
#X obj 30 300 r basefreq;
#X obj 30 330 * 1;
#X obj 30 360 sig~;
#X obj 110 300 osc~ 0.05;
#X obj 110 330 *~ 4;
#X obj 30 390 +~;
#X obj 30 420 phasor~;
#X obj 30 450 -~ 0.5;
#X obj 180 300 r basefreq;
#X obj 180 330 * 1.5;
#X obj 180 360 sig~;
#X obj 260 300 osc~ 0.07;
#X obj 260 330 *~ 5;
#X obj 180 390 +~;
#X obj 180 420 phasor~;
#X obj 180 450 -~ 0.5;
#X obj 330 300 r basefreq;
#X obj 330 330 * 2;
#X obj 330 360 sig~;
#X obj 410 300 osc~ 0.11;
#X obj 410 330 *~ 6;
#X obj 330 390 +~;
#X obj 330 420 phasor~;
#X obj 330 450 -~ 0.5;
#X obj 30 490 +~;
#X obj 30 520 +~;
#X obj 200 490 r cutoff;
#X obj 200 520 pack 0 50;
#X obj 200 550 line~;
#X obj 30 580 vcf~;
#X obj 130 580 r lvlA;
#X obj 130 610 pack 0 80;
#X obj 130 640 line~;
#X obj 30 670 *~;
#X obj 30 700 throw~ mix;
#X obj 470 300 r basefreq;
#X obj 470 330 sig~;
#X obj 560 300 r basefreq;
#X obj 560 330 * 2;
#X obj 560 360 osc~;
#X obj 560 390 *~ 120;
#X obj 470 420 +~;
#X obj 470 450 osc~;
#X obj 570 450 r lvlB;
#X obj 570 480 pack 0 80;
#X obj 570 510 line~;
#X obj 470 540 *~;
#X obj 470 570 throw~ mix;
#X obj 680 300 r basefreq;
#X obj 680 330 osc~;
#X obj 760 300 r basefreq;
#X obj 760 330 * 2;
#X obj 760 360 osc~;
#X obj 850 300 r basefreq;
#X obj 850 330 * 3.01;
#X obj 850 360 osc~;
#X obj 680 390 +~;
#X obj 680 420 +~;
#X obj 680 450 *~ 0.4;
#X obj 780 450 r lvlC;
#X obj 780 480 pack 0 80;
#X obj 780 510 line~;
#X obj 680 540 *~;
#X obj 680 570 throw~ mix;
#X obj 980 300 noise~;
#X obj 980 330 bp~ 1500 3;
#X obj 980 360 *~ 0.25;
#X obj 1080 360 r lvlN;
#X obj 1080 390 pack 0 100;
#X obj 1080 420 line~;
#X obj 980 450 *~;
#X obj 980 480 throw~ mix;
#X obj 30 760 catch~ mix;
#X obj 130 760 r vol;
#X obj 30 790 *~;
#X obj 130 820 r~ amp;
#X obj 30 820 *~;
#X obj 30 850 delwrite~ chbuf 60;
#X obj 250 600 osc~ 0.18;
#X obj 250 630 *~ 3.5;
#X obj 360 600 osc~ 0.7;
#X obj 360 630 *~ 1.2;
#X obj 250 660 +~;
#X obj 200 660 sig~ 15;
#X obj 250 690 +~;
#X obj 250 720 vd~ chbuf;
#X obj 360 660 *~ -1;
#X obj 360 690 +~;
#X obj 470 660 sig~ 19;
#X obj 360 720 +~;
#X obj 360 750 vd~ chbuf;
#X obj 250 760 *~ 0.7;
#X obj 360 790 *~ 0.7;
#X obj 130 880 +~;
#X obj 360 880 +~;
#X obj 130 920 *~ 0.3;
#X obj 360 920 *~ 0.3;
#X obj 130 950 rev3~ 100 88 1600 65;
#X obj 600 660 r wet;
#X obj 600 690 * -0.6;
#X obj 600 720 + 1;
#X obj 720 660 r wet;
#X obj 720 690 * 1.3;
#X obj 720 720 + 0.5;
#X obj 130 1000 *~;
#X obj 230 1000 *~;
#X obj 130 1030 +~;
#X obj 360 1000 *~;
#X obj 460 1000 *~;
#X obj 360 1030 +~;
#X obj 130 1060 clip~ -1 1;
#X obj 360 1060 clip~ -1 1;
#X obj 130 1090 dac~;
#X obj 800 700 loadbang;
#X msg 800 730 \; pd dsp 1 \; basefreq 110 \; vol 0.3 \; cutoff 700 \; wet 0.4 \; mcut 5000 \; lvlA 0.7 \; lvlB 0 \; lvlC 0.2 \; lvlN 0 \; detune 6;
#X msg 980 700 2;
#X obj 1000 520 r detune;
#X msg 820 770 \; lvlA 0.7 \; lvlB 0 \; lvlC 0.2 \; lvlN 0 \; detune 6;
#X msg 820 800 \; lvlA 0.2 \; lvlB 0 \; lvlC 0.4 \; lvlN 0.25 \; detune 4;
#X msg 820 830 \; lvlA 0.6 \; lvlB 0.1 \; lvlC 0.15 \; lvlN 0.15 \; detune 8;
#X msg 820 860 \; lvlA 0.1 \; lvlB 0.5 \; lvlC 0.3 \; lvlN 0 \; detune 3;
#X msg 820 890 \; lvlA 0.2 \; lvlB 0 \; lvlC 0.7 \; lvlN 0 \; detune 5;
#X text 30 270 VOICE A -- Mellotron/Juno strings (warm filtered saws);
#X text 470 270 VOICE B -- soft Rhodes EP (gentle FM);
#X text 680 270 VOICE C -- warm sine pad;
#X text 980 270 VOICE D -- breath/air noise;
#X text 470 12 K1 vol | K2 warmth | K3 = BANK | K4 = reverb (full = drenched);
#X text 250 575 tape-chorus (warmth + wobble);
#X text 130 935 warm dark reverb (spring-ish);
#X text 30 1115 tap key = pitch | pedal = slow swell on/off | K3 sweeps banks;
#X obj 800 860 catch~ sfx;
#X obj 30 868 +~;
#X obj 980 820 ctlin 74;
#X obj 980 850 * 120;
#X obj 980 880 + 200;
#X obj 980 910 s mcut;
#X obj 30 895 lop~ 16000;
#X obj 220 895 r mcut;
#X connect 0 0 1 0;
#X connect 0 1 1 1;
#X connect 1 0 2 0;
#X connect 2 0 3 0;
#X connect 4 0 5 0;
#X connect 5 0 6 0;
#X connect 6 0 7 0;
#X connect 7 0 8 0;
#X connect 8 0 6 1;
#X connect 8 0 9 0;
#X connect 9 0 10 0;
#X connect 10 0 11 0;
#X connect 11 0 12 0;
#X connect 13 0 14 0;
#X connect 14 0 15 0;
#X connect 16 0 17 0;
#X connect 17 0 18 0;
#X connect 18 0 19 0;
#X connect 20 0 21 0;
#X connect 21 0 22 0;
#X connect 23 0 24 0;
#X connect 24 0 25 0;
#X connect 25 0 26 0;
#X connect 27 0 28 0;
#X connect 28 0 29 0;
#X connect 29 0 32 0;
#X connect 30 0 31 0;
#X connect 31 0 32 1;
#X connect 32 0 33 0;
#X connect 33 0 34 0;
#X connect 35 0 36 0;
#X connect 36 0 37 0;
#X connect 37 0 40 0;
#X connect 38 0 39 0;
#X connect 39 0 40 1;
#X connect 40 0 41 0;
#X connect 41 0 42 0;
#X connect 43 0 44 0;
#X connect 44 0 45 0;
#X connect 45 0 48 0;
#X connect 46 0 47 0;
#X connect 47 0 48 1;
#X connect 48 0 49 0;
#X connect 49 0 50 0;
#X connect 34 0 51 0;
#X connect 42 0 51 1;
#X connect 51 0 52 0;
#X connect 50 0 52 1;
#X connect 52 0 56 0;
#X connect 53 0 54 0;
#X connect 54 0 55 0;
#X connect 55 0 56 1;
#X connect 56 0 60 0;
#X connect 57 0 58 0;
#X connect 58 0 59 0;
#X connect 59 0 60 1;
#X connect 60 0 61 0;
#X connect 143 0 31 1;
#X connect 143 0 39 1;
#X connect 143 0 47 1;
#X connect 142 0 56 2;
#X connect 62 0 63 0;
#X connect 64 0 65 0;
#X connect 65 0 66 0;
#X connect 66 0 67 0;
#X connect 63 0 68 0;
#X connect 67 0 68 1;
#X connect 68 0 69 0;
#X connect 69 0 73 0;
#X connect 70 0 71 0;
#X connect 71 0 72 0;
#X connect 72 0 73 1;
#X connect 73 0 74 0;
#X connect 75 0 76 0;
#X connect 77 0 78 0;
#X connect 78 0 79 0;
#X connect 80 0 81 0;
#X connect 81 0 82 0;
#X connect 76 0 83 0;
#X connect 79 0 83 1;
#X connect 83 0 84 0;
#X connect 82 0 84 1;
#X connect 84 0 85 0;
#X connect 85 0 89 0;
#X connect 86 0 87 0;
#X connect 87 0 88 0;
#X connect 88 0 89 1;
#X connect 89 0 90 0;
#X connect 91 0 92 0;
#X connect 92 0 93 0;
#X connect 93 0 97 0;
#X connect 94 0 95 0;
#X connect 95 0 96 0;
#X connect 96 0 97 1;
#X connect 97 0 98 0;
#X connect 99 0 101 0;
#X connect 100 0 101 1;
#X connect 101 0 103 0;
#X connect 102 0 103 1;
#X connect 163 0 104 0;
#X connect 105 0 106 0;
#X connect 107 0 108 0;
#X connect 106 0 109 0;
#X connect 108 0 109 1;
#X connect 109 0 111 0;
#X connect 110 0 111 1;
#X connect 111 0 112 0;
#X connect 106 0 113 0;
#X connect 113 0 114 0;
#X connect 108 0 114 1;
#X connect 114 0 116 0;
#X connect 115 0 116 1;
#X connect 116 0 117 0;
#X connect 112 0 118 0;
#X connect 117 0 119 0;
#X connect 163 0 120 0;
#X connect 118 0 120 1;
#X connect 163 0 121 0;
#X connect 103 0 158 0;
#X connect 157 0 158 1;
#X connect 158 0 163 0;
#X connect 164 0 163 1;
#X connect 159 0 160 0;
#X connect 160 0 161 0;
#X connect 161 0 162 0;
#X connect 119 0 121 1;
#X connect 120 0 122 0;
#X connect 121 0 123 0;
#X connect 122 0 124 0;
#X connect 123 0 124 1;
#X connect 125 0 126 0;
#X connect 126 0 127 0;
#X connect 128 0 129 0;
#X connect 129 0 130 0;
#X connect 120 0 131 0;
#X connect 127 0 131 1;
#X connect 124 0 132 0;
#X connect 130 0 132 1;
#X connect 131 0 133 0;
#X connect 132 0 133 1;
#X connect 121 0 134 0;
#X connect 127 0 134 1;
#X connect 124 1 135 0;
#X connect 130 0 135 1;
#X connect 134 0 136 0;
#X connect 135 0 136 1;
#X connect 133 0 137 0;
#X connect 136 0 138 0;
#X connect 137 0 139 0;
#X connect 138 0 139 1;
#X connect 140 0 141 0;
#X connect 140 0 142 0;
#X connect 140 0 144 0;
#X connect 26 0 144 0;
#X connect 26 1 145 0;
#X connect 26 2 146 0;
#X connect 26 3 147 0;
#X connect 26 4 148 0;
