#N canvas 50 50 520 360 12;
#X obj 30 30 loadbang;
#X obj 30 60 del 600;
#X msg 30 90 240 \, 126 \, 127 \, 6 \, 1 \, 247;
#X obj 30 140 midiout;
#X obj 280 30 sysexin;
#X obj 280 70 print FW;
#X obj 380 30 midiin;
#X obj 380 70 print RAW;
#X text 30 180 sends MIDI Universal Identity Request (F0 7E 7F 06 01 F7);
#X connect 0 0 1 0;
#X connect 1 0 2 0;
#X connect 2 0 3 0;
#X connect 4 0 5 0;
#X connect 6 0 7 0;
