#N canvas 40 40 720 480 12;
#X text 30 10 Jouhikko REAL bowed-lyre D-drone (looped sample). Knob 4 (CC90) = level. Feeds the shared sfx/reverb bus.;
#X obj 500 40 table jdrone;
#X obj 30 60 loadbang;
#X msg 30 100 read -resize /home/ian/sfz/jouhikko/JouhiSamples/D-String-Drone-F_R1.wav jdrone;
#X obj 30 140 soundfiler;
#X obj 30 180 t f f;
#X obj 30 220 expr 44100.0/$f1;
#X obj 30 260 phasor~;
#X obj 30 300 *~;
#X obj 30 340 tabread4~ jdrone;
#X obj 250 60 ctlin 90;
#X obj 250 100 / 127;
#X msg 360 100 0.6;
#X obj 250 140 pack 0 200;
#X obj 250 180 line~;
#X obj 30 380 *~;
#X obj 30 420 throw~ sfx;
#X obj 170 370 r~ amp;
#X obj 30 400 *~;
#X connect 2 0 3 0;
#X connect 3 0 4 0;
#X connect 4 0 5 0;
#X connect 5 0 6 0;
#X connect 5 1 8 1;
#X connect 6 0 7 0;
#X connect 7 0 8 0;
#X connect 8 0 9 0;
#X connect 9 0 15 0;
#X connect 10 0 11 0;
#X connect 11 0 13 0;
#X connect 13 0 14 0;
#X connect 14 0 15 1;
#X connect 15 0 18 0;
#X connect 17 0 18 1;
#X connect 18 0 16 0;
