#N canvas 30 30 520 320 12;
#X text 20 10 Minimal test: can Pd's sysexout drive the MiniLab LCD?;
#X obj 30 50 loadbang;
#X obj 30 80 del 500;
#X obj 30 110 t b b;
#X msg 30 150 240 \, 0 \, 32 \, 107 \, 127 \, 66 \, 2 \, 2 \, 64 \, 106 \, 33 \, 247;
#X msg 30 220 240 \, 0 \, 32 \, 107 \, 127 \, 66 \, 4 \, 2 \, 96 \, 1 \, 80 \, 68 \, 32 \, 76 \, 67 \, 68 \, 32 \, 79 \, 75 \, 0 \, 2 \, 115 \, 121 \, 115 \, 101 \, 120 \, 111 \, 117 \, 116 \, 33 \, 247;
#X obj 30 270 midiout;
#X connect 1 0 2 0;
#X connect 2 0 3 0;
#X connect 3 1 4 0;
#X connect 3 0 5 0;
#X connect 4 0 6 0;
#X connect 5 0 6 0;
