#N canvas 40 40 1000 640 12;
#X text 20 10 LCD: line1 = world (r keysinst) + play/silent glyph top-right \; line2 = subtitle. Play state read live off [r~ amp].;
#X obj 40 60 r keysinst;
#X obj 40 90 t b f;
#X obj 300 60 r~ amp;
#X obj 300 90 snapshot~;
#X obj 430 60 metro 150;
#X obj 300 140 > 0.01;
#X obj 300 170 change;
#X obj 300 200 t b f;
#X obj 40 320 f;
#X obj 300 320 f;
#X obj 120 260 t b b;
#X obj 40 360 * 2;
#X obj 40 400 +;
#X obj 40 440 sel 0 1 2 3 4 5 6 7;
#X msg 40 490 240 \, 0 \, 32 \, 107 \, 127 \, 66 \, 4 \, 2 \, 96 \, 1 \, 67 \, 79 \, 83 \, 77 \, 79 \, 83 \, 32 \, 32 \, 32 \, 32 \, 32 \, 32 \, 32 \, 32 \, 32 \, 32 \, 32 \, 32 \, 32 \, 32 \, 46 \, 0 \, 2 \, 116 \, 104 \, 101 \, 32 \, 118 \, 111 \, 105 \, 100 \, 247;
#X msg 420 490 240 \, 0 \, 32 \, 107 \, 127 \, 66 \, 4 \, 2 \, 96 \, 1 \, 67 \, 79 \, 83 \, 77 \, 79 \, 83 \, 32 \, 32 \, 32 \, 32 \, 32 \, 32 \, 32 \, 32 \, 32 \, 32 \, 32 \, 32 \, 32 \, 32 \, 62 \, 0 \, 2 \, 116 \, 104 \, 101 \, 32 \, 118 \, 111 \, 105 \, 100 \, 247;
#X msg 40 516 240 \, 0 \, 32 \, 107 \, 127 \, 66 \, 4 \, 2 \, 96 \, 1 \, 84 \, 72 \, 69 \, 32 \, 67 \, 65 \, 73 \, 82 \, 78 \, 32 \, 32 \, 32 \, 32 \, 32 \, 32 \, 32 \, 32 \, 32 \, 32 \, 32 \, 46 \, 0 \, 2 \, 116 \, 104 \, 101 \, 32 \, 97 \, 110 \, 99 \, 101 \, 115 \, 116 \, 111 \, 114 \, 115 \, 247;
#X msg 420 516 240 \, 0 \, 32 \, 107 \, 127 \, 66 \, 4 \, 2 \, 96 \, 1 \, 84 \, 72 \, 69 \, 32 \, 67 \, 65 \, 73 \, 82 \, 78 \, 32 \, 32 \, 32 \, 32 \, 32 \, 32 \, 32 \, 32 \, 32 \, 32 \, 32 \, 62 \, 0 \, 2 \, 116 \, 104 \, 101 \, 32 \, 97 \, 110 \, 99 \, 101 \, 115 \, 116 \, 111 \, 114 \, 115 \, 247;
#X msg 40 542 240 \, 0 \, 32 \, 107 \, 127 \, 66 \, 4 \, 2 \, 96 \, 1 \, 69 \, 73 \, 82 \, 69 \, 32 \, 32 \, 32 \, 32 \, 32 \, 32 \, 32 \, 32 \, 32 \, 32 \, 32 \, 32 \, 32 \, 32 \, 32 \, 32 \, 46 \, 0 \, 2 \, 116 \, 104 \, 101 \, 32 \, 109 \, 105 \, 115 \, 116 \, 247;
#X msg 420 542 240 \, 0 \, 32 \, 107 \, 127 \, 66 \, 4 \, 2 \, 96 \, 1 \, 69 \, 73 \, 82 \, 69 \, 32 \, 32 \, 32 \, 32 \, 32 \, 32 \, 32 \, 32 \, 32 \, 32 \, 32 \, 32 \, 32 \, 32 \, 32 \, 32 \, 62 \, 0 \, 2 \, 116 \, 104 \, 101 \, 32 \, 109 \, 105 \, 115 \, 116 \, 247;
#X msg 40 568 240 \, 0 \, 32 \, 107 \, 127 \, 66 \, 4 \, 2 \, 96 \, 1 \, 84 \, 72 \, 69 \, 32 \, 68 \, 69 \, 69 \, 80 \, 32 \, 32 \, 32 \, 32 \, 32 \, 32 \, 32 \, 32 \, 32 \, 32 \, 32 \, 32 \, 46 \, 0 \, 2 \, 100 \, 101 \, 115 \, 99 \, 101 \, 110 \, 116 \, 247;
#X msg 420 568 240 \, 0 \, 32 \, 107 \, 127 \, 66 \, 4 \, 2 \, 96 \, 1 \, 84 \, 72 \, 69 \, 32 \, 68 \, 69 \, 69 \, 80 \, 32 \, 32 \, 32 \, 32 \, 32 \, 32 \, 32 \, 32 \, 32 \, 32 \, 32 \, 32 \, 62 \, 0 \, 2 \, 100 \, 101 \, 115 \, 99 \, 101 \, 110 \, 116 \, 247;
#X obj 40 610 midiout;
#X obj 700 60 loadbang;
#X obj 700 90 del 900;
#X obj 700 120 t b b b;
#X msg 700 160 240 \, 0 \, 32 \, 107 \, 127 \, 66 \, 2 \, 2 \, 64 \, 106 \, 33 \, 247;
#X msg 860 120 1;
#X connect 0 0 1 0;
#X connect 1 0 10 0;
#X connect 1 1 8 1;
#X connect 2 0 3 0;
#X connect 4 0 3 0;
#X connect 3 0 5 0;
#X connect 5 0 6 0;
#X connect 6 0 7 0;
#X connect 7 0 10 0;
#X connect 7 1 9 1;
#X connect 10 0 8 0;
#X connect 10 1 9 0;
#X connect 8 0 11 0;
#X connect 11 0 12 0;
#X connect 9 0 12 1;
#X connect 12 0 13 0;
#X connect 13 0 14 0;
#X connect 14 0 22 0;
#X connect 13 1 15 0;
#X connect 15 0 22 0;
#X connect 13 2 16 0;
#X connect 16 0 22 0;
#X connect 13 3 17 0;
#X connect 17 0 22 0;
#X connect 13 4 18 0;
#X connect 18 0 22 0;
#X connect 13 5 19 0;
#X connect 19 0 22 0;
#X connect 13 6 20 0;
#X connect 20 0 22 0;
#X connect 13 7 21 0;
#X connect 21 0 22 0;
#X connect 23 0 24 0;
#X connect 24 0 25 0;
#X connect 25 2 26 0;
#X connect 26 0 22 0;
#X connect 25 1 27 0;
#X connect 27 0 4 0;
#X connect 25 0 10 0;
