#N canvas 30 30 1180 720 12;
#X obj 40 60 r keysinst;
#X obj 40 90 t b f;
#X obj 300 60 r pedalstate;
#X obj 300 90 change;
#X obj 300 120 t b f;
#X obj 40 320 f;
#X obj 300 320 f;
#X obj 120 240 t b b;
#X obj 40 360 * 2;
#X obj 40 400 +;
#X obj 40 440 sel 0 1 2 3 4 5 6 7;
#X msg 40 490 240 \, 0 \, 32 \, 107 \, 127 \, 66 \, 4 \, 2 \, 96 \, 1 \, 67 \, 79 \, 83 \, 77 \, 79 \, 83 \, 32 \, 32 \, 32 \, 32 \, 32 \, 32 \, 32 \, 32 \, 32 \, 32 \, 32 \, 32 \, 32 \, 91 \, 93 \, 0 \, 2 \, 116 \, 104 \, 101 \, 32 \, 118 \, 111 \, 105 \, 100 \, 247;
#X msg 470 490 240 \, 0 \, 32 \, 107 \, 127 \, 66 \, 4 \, 2 \, 96 \, 1 \, 67 \, 79 \, 83 \, 77 \, 79 \, 83 \, 32 \, 32 \, 32 \, 32 \, 32 \, 32 \, 32 \, 32 \, 32 \, 32 \, 32 \, 32 \, 32 \, 32 \, 62 \, 0 \, 2 \, 116 \, 104 \, 101 \, 32 \, 118 \, 111 \, 105 \, 100 \, 247;
#X msg 40 514 240 \, 0 \, 32 \, 107 \, 127 \, 66 \, 4 \, 2 \, 96 \, 1 \, 84 \, 72 \, 69 \, 32 \, 67 \, 65 \, 73 \, 82 \, 78 \, 32 \, 32 \, 32 \, 32 \, 32 \, 32 \, 32 \, 32 \, 32 \, 32 \, 91 \, 93 \, 0 \, 2 \, 116 \, 104 \, 101 \, 32 \, 97 \, 110 \, 99 \, 101 \, 115 \, 116 \, 111 \, 114 \, 115 \, 247;
#X msg 470 514 240 \, 0 \, 32 \, 107 \, 127 \, 66 \, 4 \, 2 \, 96 \, 1 \, 84 \, 72 \, 69 \, 32 \, 67 \, 65 \, 73 \, 82 \, 78 \, 32 \, 32 \, 32 \, 32 \, 32 \, 32 \, 32 \, 32 \, 32 \, 32 \, 32 \, 62 \, 0 \, 2 \, 116 \, 104 \, 101 \, 32 \, 97 \, 110 \, 99 \, 101 \, 115 \, 116 \, 111 \, 114 \, 115 \, 247;
#X msg 40 538 240 \, 0 \, 32 \, 107 \, 127 \, 66 \, 4 \, 2 \, 96 \, 1 \, 69 \, 73 \, 82 \, 69 \, 32 \, 32 \, 32 \, 32 \, 32 \, 32 \, 32 \, 32 \, 32 \, 32 \, 32 \, 32 \, 32 \, 32 \, 32 \, 91 \, 93 \, 0 \, 2 \, 116 \, 104 \, 101 \, 32 \, 109 \, 105 \, 115 \, 116 \, 247;
#X msg 470 538 240 \, 0 \, 32 \, 107 \, 127 \, 66 \, 4 \, 2 \, 96 \, 1 \, 69 \, 73 \, 82 \, 69 \, 32 \, 32 \, 32 \, 32 \, 32 \, 32 \, 32 \, 32 \, 32 \, 32 \, 32 \, 32 \, 32 \, 32 \, 32 \, 32 \, 62 \, 0 \, 2 \, 116 \, 104 \, 101 \, 32 \, 109 \, 105 \, 115 \, 116 \, 247;
#X msg 40 562 240 \, 0 \, 32 \, 107 \, 127 \, 66 \, 4 \, 2 \, 96 \, 1 \, 84 \, 72 \, 69 \, 32 \, 68 \, 69 \, 69 \, 80 \, 32 \, 32 \, 32 \, 32 \, 32 \, 32 \, 32 \, 32 \, 32 \, 32 \, 32 \, 91 \, 93 \, 0 \, 2 \, 100 \, 101 \, 115 \, 99 \, 101 \, 110 \, 116 \, 247;
#X msg 470 562 240 \, 0 \, 32 \, 107 \, 127 \, 66 \, 4 \, 2 \, 96 \, 1 \, 84 \, 72 \, 69 \, 32 \, 68 \, 69 \, 69 \, 80 \, 32 \, 32 \, 32 \, 32 \, 32 \, 32 \, 32 \, 32 \, 32 \, 32 \, 32 \, 32 \, 62 \, 0 \, 2 \, 100 \, 101 \, 115 \, 99 \, 101 \, 110 \, 116 \, 247;
#X obj 40 690 midiout;
#X obj 700 60 loadbang;
#X obj 700 90 del 900;
#X obj 700 120 t b b;
#X msg 700 160 240 \, 0 \, 32 \, 107 \, 127 \, 66 \, 2 \, 2 \, 64 \, 106 \, 33 \, 247;
#X obj 900 600 del 1500;
#X obj 40 60 ctlin 14;
#X obj 40 120 speedlim 40;
#X obj 100 60 ctlin 82;
#X obj 40 150 t b f;
#X obj 40 190 t f f f;
#X obj 40 230 mod 10;
#X obj 40 260 + 48;
#X obj 110 230 / 10;
#X obj 110 260 i;
#X obj 110 290 mod 10;
#X obj 110 320 + 48;
#X obj 180 230 / 100;
#X obj 180 260 i;
#X obj 180 290 + 48;
#X obj 40 360 pack f f f;
#X msg 40 400 240 0 32 107 127 66 4 2 96 1 70 65 68 69 82 32 49 0 2 118 97 108 58 32 $1 $2 $3 247;
#X obj 180 60 ctlin 15;
#X obj 180 120 speedlim 40;
#X obj 240 60 ctlin 83;
#X obj 180 150 t b f;
#X obj 180 190 t f f f;
#X obj 180 230 mod 10;
#X obj 180 260 + 48;
#X obj 250 230 / 10;
#X obj 250 260 i;
#X obj 250 290 mod 10;
#X obj 250 320 + 48;
#X obj 320 230 / 100;
#X obj 320 260 i;
#X obj 320 290 + 48;
#X obj 180 360 pack f f f;
#X msg 180 400 240 0 32 107 127 66 4 2 96 1 70 65 68 69 82 32 50 0 2 118 97 108 58 32 $1 $2 $3 247;
#X obj 320 60 ctlin 30;
#X obj 320 120 speedlim 40;
#X obj 380 60 ctlin 85;
#X obj 320 150 t b f;
#X obj 320 190 t f f f;
#X obj 320 230 mod 10;
#X obj 320 260 + 48;
#X obj 390 230 / 10;
#X obj 390 260 i;
#X obj 390 290 mod 10;
#X obj 390 320 + 48;
#X obj 460 230 / 100;
#X obj 460 260 i;
#X obj 460 290 + 48;
#X obj 320 360 pack f f f;
#X msg 320 400 240 0 32 107 127 66 4 2 96 1 70 65 68 69 82 32 51 0 2 118 97 108 58 32 $1 $2 $3 247;
#X obj 460 60 ctlin 31;
#X obj 460 120 speedlim 40;
#X obj 520 60 ctlin 17;
#X obj 460 150 t b f;
#X obj 460 190 t f f f;
#X obj 460 230 mod 10;
#X obj 460 260 + 48;
#X obj 530 230 / 10;
#X obj 530 260 i;
#X obj 530 290 mod 10;
#X obj 530 320 + 48;
#X obj 600 230 / 100;
#X obj 600 260 i;
#X obj 600 290 + 48;
#X obj 460 360 pack f f f;
#X msg 460 400 240 0 32 107 127 66 4 2 96 1 70 65 68 69 82 32 52 0 2 118 97 108 58 32 $1 $2 $3 247;
#X obj 600 60 ctlin 117;
#X obj 600 120 speedlim 40;
#X obj 660 60 ctlin 16;
#X obj 600 150 t b f;
#X obj 600 190 t f f f;
#X obj 600 230 mod 10;
#X obj 600 260 + 48;
#X obj 670 230 / 10;
#X obj 670 260 i;
#X obj 670 290 mod 10;
#X obj 670 320 + 48;
#X obj 740 230 / 100;
#X obj 740 260 i;
#X obj 740 290 + 48;
#X obj 600 360 pack f f f;
#X msg 600 400 240 0 32 107 127 66 4 2 96 1 86 79 76 85 77 69 0 2 118 97 108 58 32 $1 $2 $3 247;
#X obj 740 60 ctlin 89;
#X obj 740 120 speedlim 40;
#X obj 800 60 ctlin 76;
#X obj 740 150 t b f;
#X obj 740 190 t f f f;
#X obj 740 230 mod 10;
#X obj 740 260 + 48;
#X obj 810 230 / 10;
#X obj 810 260 i;
#X obj 810 290 mod 10;
#X obj 810 320 + 48;
#X obj 880 230 / 100;
#X obj 880 260 i;
#X obj 880 290 + 48;
#X obj 740 360 pack f f f;
#X msg 740 400 240 0 32 107 127 66 4 2 96 1 82 69 86 69 82 66 0 2 118 97 108 58 32 $1 $2 $3 247;
#X obj 880 60 ctlin 86;
#X obj 880 120 speedlim 40;
#X obj 880 150 t b f;
#X obj 880 190 t f f f;
#X obj 880 230 mod 10;
#X obj 880 260 + 48;
#X obj 950 230 / 10;
#X obj 950 260 i;
#X obj 950 290 mod 10;
#X obj 950 320 + 48;
#X obj 1020 230 / 100;
#X obj 1020 260 i;
#X obj 1020 290 + 48;
#X obj 880 360 pack f f f;
#X msg 880 400 240 0 32 107 127 66 4 2 96 1 70 73 76 84 69 82 0 2 118 97 108 58 32 $1 $2 $3 247;
#X obj 1020 60 ctlin 87;
#X obj 1020 120 speedlim 40;
#X obj 1020 150 t b f;
#X obj 1020 190 t f f f;
#X obj 1020 230 mod 10;
#X obj 1020 260 + 48;
#X obj 1090 230 / 10;
#X obj 1090 260 i;
#X obj 1090 290 mod 10;
#X obj 1090 320 + 48;
#X obj 1160 230 / 100;
#X obj 1160 260 i;
#X obj 1160 290 + 48;
#X obj 1020 360 pack f f f;
#X msg 1020 400 240 0 32 107 127 66 4 2 96 1 87 65 82 77 84 72 0 2 118 97 108 58 32 $1 $2 $3 247;
#X text 20 10 LCD owner: NORMAL = world + play(>)/stop([]) glyph \; MONITOR = fader/knob name + value (1.5s).;
#X connect 0 0 1 0;
#X connect 1 0 7 0;
#X connect 1 1 5 1;
#X connect 2 0 3 0;
#X connect 3 0 4 0;
#X connect 4 0 7 0;
#X connect 4 1 6 1;
#X connect 7 0 5 0;
#X connect 7 1 6 0;
#X connect 5 0 8 0;
#X connect 8 0 9 0;
#X connect 6 0 9 1;
#X connect 9 0 10 0;
#X connect 10 0 11 0;
#X connect 11 0 19 0;
#X connect 10 1 12 0;
#X connect 12 0 19 0;
#X connect 10 2 13 0;
#X connect 13 0 19 0;
#X connect 10 3 14 0;
#X connect 14 0 19 0;
#X connect 10 4 15 0;
#X connect 15 0 19 0;
#X connect 10 5 16 0;
#X connect 16 0 19 0;
#X connect 10 6 17 0;
#X connect 17 0 19 0;
#X connect 10 7 18 0;
#X connect 18 0 19 0;
#X connect 20 0 21 0;
#X connect 21 0 22 0;
#X connect 22 1 23 0;
#X connect 23 0 19 0;
#X connect 22 0 7 0;
#X connect 24 0 7 0;
#X connect 25 0 26 0;
#X connect 27 0 26 0;
#X connect 26 0 28 0;
#X connect 28 0 24 0;
#X connect 28 1 29 0;
#X connect 29 2 30 0;
#X connect 30 0 31 0;
#X connect 29 1 32 0;
#X connect 32 0 33 0;
#X connect 33 0 34 0;
#X connect 34 0 35 0;
#X connect 29 0 36 0;
#X connect 36 0 37 0;
#X connect 37 0 38 0;
#X connect 38 0 39 0;
#X connect 35 0 39 1;
#X connect 31 0 39 2;
#X connect 39 0 40 0;
#X connect 40 0 19 0;
#X connect 41 0 42 0;
#X connect 43 0 42 0;
#X connect 42 0 44 0;
#X connect 44 0 24 0;
#X connect 44 1 45 0;
#X connect 45 2 46 0;
#X connect 46 0 47 0;
#X connect 45 1 48 0;
#X connect 48 0 49 0;
#X connect 49 0 50 0;
#X connect 50 0 51 0;
#X connect 45 0 52 0;
#X connect 52 0 53 0;
#X connect 53 0 54 0;
#X connect 54 0 55 0;
#X connect 51 0 55 1;
#X connect 47 0 55 2;
#X connect 55 0 56 0;
#X connect 56 0 19 0;
#X connect 57 0 58 0;
#X connect 59 0 58 0;
#X connect 58 0 60 0;
#X connect 60 0 24 0;
#X connect 60 1 61 0;
#X connect 61 2 62 0;
#X connect 62 0 63 0;
#X connect 61 1 64 0;
#X connect 64 0 65 0;
#X connect 65 0 66 0;
#X connect 66 0 67 0;
#X connect 61 0 68 0;
#X connect 68 0 69 0;
#X connect 69 0 70 0;
#X connect 70 0 71 0;
#X connect 67 0 71 1;
#X connect 63 0 71 2;
#X connect 71 0 72 0;
#X connect 72 0 19 0;
#X connect 73 0 74 0;
#X connect 75 0 74 0;
#X connect 74 0 76 0;
#X connect 76 0 24 0;
#X connect 76 1 77 0;
#X connect 77 2 78 0;
#X connect 78 0 79 0;
#X connect 77 1 80 0;
#X connect 80 0 81 0;
#X connect 81 0 82 0;
#X connect 82 0 83 0;
#X connect 77 0 84 0;
#X connect 84 0 85 0;
#X connect 85 0 86 0;
#X connect 86 0 87 0;
#X connect 83 0 87 1;
#X connect 79 0 87 2;
#X connect 87 0 88 0;
#X connect 88 0 19 0;
#X connect 89 0 90 0;
#X connect 91 0 90 0;
#X connect 90 0 92 0;
#X connect 92 0 24 0;
#X connect 92 1 93 0;
#X connect 93 2 94 0;
#X connect 94 0 95 0;
#X connect 93 1 96 0;
#X connect 96 0 97 0;
#X connect 97 0 98 0;
#X connect 98 0 99 0;
#X connect 93 0 100 0;
#X connect 100 0 101 0;
#X connect 101 0 102 0;
#X connect 102 0 103 0;
#X connect 99 0 103 1;
#X connect 95 0 103 2;
#X connect 103 0 104 0;
#X connect 104 0 19 0;
#X connect 105 0 106 0;
#X connect 107 0 106 0;
#X connect 106 0 108 0;
#X connect 108 0 24 0;
#X connect 108 1 109 0;
#X connect 109 2 110 0;
#X connect 110 0 111 0;
#X connect 109 1 112 0;
#X connect 112 0 113 0;
#X connect 113 0 114 0;
#X connect 114 0 115 0;
#X connect 109 0 116 0;
#X connect 116 0 117 0;
#X connect 117 0 118 0;
#X connect 118 0 119 0;
#X connect 115 0 119 1;
#X connect 111 0 119 2;
#X connect 119 0 120 0;
#X connect 120 0 19 0;
#X connect 121 0 122 0;
#X connect 122 0 123 0;
#X connect 123 0 24 0;
#X connect 123 1 124 0;
#X connect 124 2 125 0;
#X connect 125 0 126 0;
#X connect 124 1 127 0;
#X connect 127 0 128 0;
#X connect 128 0 129 0;
#X connect 129 0 130 0;
#X connect 124 0 131 0;
#X connect 131 0 132 0;
#X connect 132 0 133 0;
#X connect 133 0 134 0;
#X connect 130 0 134 1;
#X connect 126 0 134 2;
#X connect 134 0 135 0;
#X connect 135 0 19 0;
#X connect 136 0 137 0;
#X connect 137 0 138 0;
#X connect 138 0 24 0;
#X connect 138 1 139 0;
#X connect 139 2 140 0;
#X connect 140 0 141 0;
#X connect 139 1 142 0;
#X connect 142 0 143 0;
#X connect 143 0 144 0;
#X connect 144 0 145 0;
#X connect 139 0 146 0;
#X connect 146 0 147 0;
#X connect 147 0 148 0;
#X connect 148 0 149 0;
#X connect 145 0 149 1;
#X connect 141 0 149 2;
#X connect 149 0 150 0;
#X connect 150 0 19 0;
