#N canvas 50 50 540 420 12;
#X obj 30 30 loadbang;
#X obj 30 230 del 200;
#X msg 30 260 1;
#X obj 30 290 metro 300;
#X obj 30 320 f;
#X obj 120 320 + 1;
#X obj 120 350 mod 8;
#X obj 30 360 + 36;
#X obj 30 390 noteout;
#X obj 220 320 - 1;
#X obj 220 350 mod 8;
#X obj 220 380 + 36;
#X obj 220 410 noteout;
#X msg 300 60 127;
#X msg 340 60 10;
#X msg 380 60 0;
#X msg 420 60 10;
#X text 30 110 Chase: lights pad sequence on ch 10 -- watch the MPK pads;
#X connect 0 0 1 0;
#X connect 0 0 13 0;
#X connect 0 0 14 0;
#X connect 0 0 15 0;
#X connect 0 0 16 0;
#X connect 1 0 2 0;
#X connect 2 0 3 0;
#X connect 3 0 4 0;
#X connect 4 0 5 0;
#X connect 5 0 6 0;
#X connect 6 0 4 1;
#X connect 6 0 7 0;
#X connect 6 0 9 0;
#X connect 7 0 8 0;
#X connect 9 0 10 0;
#X connect 10 0 11 0;
#X connect 11 0 12 0;
#X connect 13 0 8 1;
#X connect 14 0 8 2;
#X connect 15 0 12 1;
#X connect 16 0 12 2;
