#N canvas 50 50 500 360 12;
#X obj 30 30 notein;
#X obj 30 90 pack 0 0 0;
#X obj 30 130 print PAD;
#X obj 260 30 ctlin;
#X obj 260 90 pack 0 0;
#X obj 260 130 print CC;
#X connect 0 0 1 0;
#X connect 0 1 1 1;
#X connect 0 2 1 2;
#X connect 1 0 2 0;
#X connect 3 0 4 0;
#X connect 3 1 4 1;
#X connect 4 0 5 0;
