#N canvas 40 40 780 600 12;
#X obj 30 40 catch~ sfx;
#X obj 30 100 +~;
#X obj 30 140 delwrite~ flbuf 40;
#X obj 300 40 ctlin 110;
#X obj 300 70 / 254;
#X obj 300 100 + 0.05;
#X obj 300 140 osc~;
#X obj 300 180 *~ 3.5;
#X obj 300 220 +~ 6;
#X obj 300 260 vd~ flbuf;
#X obj 470 320 *~ 0.35;
#X obj 300 360 *~;
#X obj 540 40 ctlin 90;
#X obj 540 70 / 127;
#X obj 540 100 pack 0 50;
#X obj 540 130 line~;
#X obj 30 420 +~;
#X obj 30 470 throw~ sfxout;
#X obj 600 200 loadbang;
#X msg 600 240 0.15;
#X msg 680 240 0.3;
#X text 20 500 Global phaser/flanger on the sfx bus: swept modulated delay + feedback. K5(CC110)=rate \, K4(CC90)=amount. Dry always passes \; wet is mixed in.;
#X connect 0 0 1 0;
#X connect 0 0 16 0;
#X connect 1 0 2 0;
#X connect 3 0 4 0;
#X connect 4 0 5 0;
#X connect 5 0 6 0;
#X connect 6 0 7 0;
#X connect 7 0 8 0;
#X connect 8 0 9 0;
#X connect 9 0 11 0;
#X connect 9 0 10 0;
#X connect 10 0 1 1;
#X connect 11 0 16 1;
#X connect 12 0 13 0;
#X connect 13 0 14 0;
#X connect 14 0 15 0;
#X connect 15 0 11 1;
#X connect 16 0 17 0;
#X connect 18 0 19 0;
#X connect 18 0 20 0;
#X connect 19 0 6 0;
#X connect 20 0 14 0;
