#N canvas 30 30 540 360 12;
#X obj 30 50 loadbang;
#X msg 30 90 open /home/ian/rtest.wav;
#X obj 30 250 writesf~;
#X obj 200 200 osc~ 440;
#X msg 30 170 start;
#X obj 30 130 del 100;
#X msg 30 210 stop;
#X obj 150 130 del 3100;
#X msg 250 90 \; pd dsp 1;
#X connect 0 0 1 0;
#X connect 1 0 2 0;
#X connect 3 0 2 0;
#X connect 0 0 5 0;
#X connect 5 0 4 0;
#X connect 4 0 2 0;
#X connect 0 0 7 0;
#X connect 7 0 6 0;
#X connect 6 0 2 0;
#X connect 0 0 8 0;
