#N canvas 20 20 940 600 12;
#X text 20 10 RIG NAV: main encoder (CC28) scrolls instruments -> name shown on MiniLab LCD \, index broadcast as [r keysinst].;
#X obj 30 60 loadbang;
#X obj 30 90 del 400;
#X obj 30 120 t b b;
#X msg 30 160 240 \, 0 \, 32 \, 107 \, 127 \, 66 \, 2 \, 2 \, 64 \, 106 \, 33 \, 247;
#X msg 260 160 240 \, 0 \, 32 \, 107 \, 127 \, 66 \, 4 \, 2 \, 96 \, 1 \, 67 \, 79 \, 83 \, 77 \, 79 \, 83 \, 0 \, 2 \, 116 \, 104 \, 101 \, 32 \, 118 \, 111 \, 105 \, 100 \, 247;
#X msg 260 200 240 \, 0 \, 32 \, 107 \, 127 \, 66 \, 4 \, 2 \, 96 \, 1 \, 84 \, 72 \, 69 \, 32 \, 67 \, 65 \, 73 \, 82 \, 78 \, 0 \, 2 \, 97 \, 110 \, 99 \, 101 \, 115 \, 116 \, 111 \, 114 \, 115 \, 247;
#X msg 260 240 240 \, 0 \, 32 \, 107 \, 127 \, 66 \, 4 \, 2 \, 96 \, 1 \, 69 \, 73 \, 82 \, 69 \, 0 \, 2 \, 116 \, 104 \, 101 \, 32 \, 109 \, 105 \, 115 \, 116 \, 247;
#X msg 260 280 240 \, 0 \, 32 \, 107 \, 127 \, 66 \, 4 \, 2 \, 96 \, 1 \, 84 \, 72 \, 69 \, 32 \, 68 \, 69 \, 69 \, 80 \, 0 \, 2 \, 100 \, 101 \, 115 \, 99 \, 101 \, 110 \, 116 \, 247;
#X obj 30 360 midiout;
#X obj 600 60 ctlin 28;
#X obj 600 90 - 64;
#X obj 600 120 +;
#X obj 600 150 clip 0 3;
#X obj 600 180 t f f;
#X obj 600 220 change;
#X obj 600 250 t f f;
#X obj 600 290 sel 0 1 2 3;
#X obj 780 250 s keysinst;
#X text 600 40 main encoder;
#X connect 1 0 2 0;
#X connect 2 0 3 0;
#X connect 3 1 4 0;
#X connect 3 0 5 0;
#X connect 4 0 9 0;
#X connect 5 0 9 0;
#X connect 6 0 9 0;
#X connect 7 0 9 0;
#X connect 8 0 9 0;
#X connect 10 0 11 0;
#X connect 11 0 12 0;
#X connect 12 0 13 0;
#X connect 13 0 14 0;
#X connect 14 1 12 1;
#X connect 14 0 15 0;
#X connect 15 0 16 0;
#X connect 16 0 17 0;
#X connect 16 1 18 0;
#X connect 17 0 5 0;
#X connect 17 1 6 0;
#X connect 17 2 7 0;
#X connect 17 3 8 0;
