#N canvas 20 20 940 600 12;
#X text 20 10 RIG NAV: main encoder (CC28) scrolls worlds -> index broadcast as [s keysinst] (0-3). LCD display is now owned by lcd.pd.;
#X obj 40 60 ctlin 28;
#X obj 40 90 - 64;
#X obj 40 120 +;
#X obj 40 150 clip 0 3;
#X obj 40 180 t f f;
#X obj 40 230 change;
#X obj 40 270 s keysinst;
#X connect 1 0 2 0;
#X connect 2 0 3 0;
#X connect 3 0 4 0;
#X connect 4 0 5 0;
#X connect 5 1 3 1;
#X connect 5 0 6 0;
#X connect 6 0 7 0;
