#N canvas 30 30 720 520 12;
#X text 20 10 sloop: transposing loop element. args = $1 table \, $2 fader# \, $3 combo#. Loops global table $1 \, transposes by [r rootratio] \, level=fader$2 \, gated to combo $3 + pedal (r~ amp).;
#X obj 30 70 r $1-freq;
#X obj 30 100 f;
#X obj 30 160 * 1;
#X obj 160 70 r rootratio;
#X obj 160 100 t b f;
#X obj 30 200 phasor~;
#X obj 200 200 r $1-len;
#X obj 30 240 *~;
#X obj 30 280 tabread4~ $1;
#X obj 360 70 r fader$2;
#X obj 360 100 pack 0 50;
#X obj 360 130 line~;
#X obj 30 320 *~;
#X obj 470 70 r keysinst;
#X obj 470 100 == $3;
#X obj 470 130 pack 0 30;
#X obj 470 160 line~;
#X obj 30 360 *~;
#X obj 200 360 r~ amp;
#X obj 30 400 *~;
#X obj 30 440 throw~ sfx;
#X connect 1 0 2 0;
#X connect 2 0 3 0;
#X connect 4 0 5 0;
#X connect 5 1 3 1;
#X connect 5 0 2 0;
#X connect 3 0 6 0;
#X connect 6 0 8 0;
#X connect 7 0 8 1;
#X connect 8 0 9 0;
#X connect 9 0 13 0;
#X connect 10 0 11 0;
#X connect 11 0 12 0;
#X connect 12 0 13 1;
#X connect 13 0 18 0;
#X connect 14 0 15 0;
#X connect 15 0 16 0;
#X connect 16 0 17 0;
#X connect 17 0 18 1;
#X connect 18 0 20 0;
#X connect 19 0 20 1;
#X connect 20 0 21 0;
