#N canvas 30 30 560 420 12;
#X obj 30 40 loadbang;
#X msg 220 40 \; pd dsp 1;
#X obj 30 300 sig~ 1;
#X obj 30 330 s~ amp;
#X obj 60 90 del 800;
#X msg 60 120 3;
#X obj 60 150 s keysinst;
#X msg 180 120 1;
#X obj 180 150 s fader1;
#X obj 300 90 del 900;
#X msg 300 120 open /home/ian/deep-test.wav;
#X obj 300 160 del 1100;
#X msg 300 190 start;
#X obj 420 90 del 4500;
#X msg 420 120 stop;
#X obj 30 240 catch~ sfx;
#X obj 30 370 writesf~;
#X obj 460 150 s fader2;
#X obj 460 180 s fader3;
#X obj 460 210 s fader4;
#X connect 0 0 1 0;
#X connect 2 0 3 0;
#X connect 0 0 4 0;
#X connect 4 0 5 0;
#X connect 5 0 6 0;
#X connect 4 0 7 0;
#X connect 7 0 8 0;
#X connect 7 0 17 0;
#X connect 7 0 18 0;
#X connect 7 0 19 0;
#X connect 0 0 9 0;
#X connect 9 0 10 0;
#X connect 10 0 16 0;
#X connect 0 0 11 0;
#X connect 11 0 12 0;
#X connect 12 0 16 0;
#X connect 0 0 13 0;
#X connect 13 0 14 0;
#X connect 14 0 16 0;
#X connect 15 0 16 0;
